<svg xmlns="http://www.w3.org/2000/svg" version="1.1" xmlns:xlink="http://www.w3.org/1999/xlink" xmlns:svgjs="http://svgjs.dev/svgjs" width="1920" height="1080" preserveAspectRatio="none" viewBox="0 0 1920 1080">
    <g mask="url(&quot;#SvgjsMask14519&quot;)" fill="none">
        <rect width="1920" height="1080" x="0" y="0" fill="rgba(241, 241, 241, 1)"></rect>
        <rect width="132" height="132" clip-path="url(&quot;#SvgjsClipPath14520&quot;)" x="679.11" y="196.4" fill="url(&quot;#SvgjsPattern14521&quot;)" transform="rotate(95.03, 745.11, 262.4)"></rect>
        <circle r="90" cx="443.12" cy="721.1" fill="rgba(205, 206, 215, 1)"></circle>
        <rect width="372" height="372" clip-path="url(&quot;#SvgjsClipPath14522&quot;)" x="1631.08" y="390.99" fill="url(&quot;#SvgjsPattern14523&quot;)" transform="rotate(328.65, 1817.08, 576.99)"></rect>
        <rect width="88.2" height="88.2" clip-path="url(&quot;#SvgjsClipPath14524&quot;)" x="760.51" y="541.83" fill="url(&quot;#SvgjsPattern14525&quot;)" transform="rotate(9.08, 804.61, 585.93)"></rect>
        <circle r="106.80324787276984" cx="590.94" cy="917.13" stroke="rgba(205, 206, 215, 1)" stroke-width="1"></circle>
        <path d="M664.62 937a5.6 5.6 0 1 0 4.36 10.32 5.6 5.6 0 1 0-4.36-10.32zM670.85 951.74a5.6 5.6 0 1 0 4.36 10.32 5.6 5.6 0 1 0-4.36-10.32zM677.07 966.48a5.6 5.6 0 1 0 4.36 10.32 5.6 5.6 0 1 0-4.36-10.32zM683.3 981.22a5.6 5.6 0 1 0 4.36 10.31 5.6 5.6 0 1 0-4.36-10.31zM637.42 913.76a5.6 5.6 0 1 0 4.36 10.31 5.6 5.6 0 1 0-4.36-10.31zM643.65 928.49a5.6 5.6 0 1 0 4.36 10.32 5.6 5.6 0 1 0-4.36-10.32zM649.88 943.23a5.6 5.6 0 1 0 4.36 10.32 5.6 5.6 0 1 0-4.36-10.32zM656.11 957.97a5.6 5.6 0 1 0 4.36 10.32 5.6 5.6 0 1 0-4.36-10.32z" stroke="rgba(205, 206, 215, 1)" stroke-width="1.33" stroke-dasharray="2, 2"></path>
        <rect width="60" height="60" clip-path="url(&quot;#SvgjsClipPath14526&quot;)" x="1860.16" y="58.83" fill="url(&quot;#SvgjsPattern14527&quot;)" transform="rotate(47.49, 1890.16, 88.83)"></rect>
        <path d="M1245.24 878.02L1255.81 885.26 1251.06 897.15 1261.63 904.39 1256.89 916.29 1267.45 923.53 1262.71 935.42M1237.59 880.35L1248.15 887.59 1243.41 899.48 1253.97 906.72 1249.23 918.62 1259.8 925.86 1255.05 937.75M1229.94 882.68L1240.5 889.91 1235.76 901.81 1246.32 909.05 1241.58 920.94 1252.14 928.18 1247.4 940.08" stroke="rgba(128, 128, 128, 1)" stroke-width="1.14" stroke-dasharray="3, 2"></path>
    </g>
    <defs>
        <mask id="SvgjsMask14519">
            <rect width="1920" height="1080" fill="#ffffff"></rect>
        </mask>
        <pattern x="0" y="0" width="6" height="6" patternUnits="userSpaceOnUse" id="SvgjsPattern14521">
            <path d="M3 1L3 5M1 3L5 3" stroke="rgba(128, 128, 128, 1)" fill="none" stroke-width="1"></path>
        </pattern>
        <clipPath id="SvgjsClipPath14520">
            <circle r="33" cx="745.11" cy="262.4"></circle>
        </clipPath>
        <pattern x="0" y="0" width="372" height="6" patternUnits="userSpaceOnUse" id="SvgjsPattern14523">
            <rect width="372" height="3" x="0" y="0" fill="rgba(205, 206, 215, 1)"></rect>
            <rect width="372" height="3" x="0" y="3" fill="rgba(0, 0, 0, 0)"></rect>
        </pattern>
        <clipPath id="SvgjsClipPath14522">
            <circle r="93" cx="1817.08" cy="576.99"></circle>
        </clipPath>
        <pattern x="0" y="0" width="88.2" height="8.82" patternUnits="userSpaceOnUse" id="SvgjsPattern14525">
            <rect width="88.2" height="4.41" x="0" y="0" fill="rgba(205, 206, 215, 1)"></rect>
            <rect width="88.2" height="4.41" x="0" y="4.41" fill="rgba(0, 0, 0, 0)"></rect>
        </pattern>
        <clipPath id="SvgjsClipPath14524">
            <circle r="22.05" cx="804.61" cy="585.93"></circle>
        </clipPath>
        <pattern x="0" y="0" width="6" height="6" patternUnits="userSpaceOnUse" id="SvgjsPattern14527">
            <path d="M3 1L3 5M1 3L5 3" stroke="rgba(205, 206, 215, 1)" fill="none" stroke-width="1.93"></path>
        </pattern>
        <clipPath id="SvgjsClipPath14526">
            <circle r="15" cx="1890.16" cy="88.83"></circle>
        </clipPath>
    </defs>
</svg>